<?xml version="1.0" encoding="UTF-8" standalone="no"?>
<svg width="200px" height="300px" viewBox="0 0 313 422" version="1.1" xmlns="http://www.w3.org/2000/svg" xmlns:xlink="http://www.w3.org/1999/xlink">
    <g id="Logo" stroke="none" stroke-width="1" fill="none" fill-rule="evenodd">
        <g id="wind-type" transform="translate(-1517.000000, -101.000000)">
            <g id="light-vertical" transform="translate(1487.000000, 106.000000)">
                <text id="Sprioc" font-family="Montserrat-Regular, Montserrat" font-size="100" font-weight="normal" fill="#000000">
                    <tspan x="26.45" y="397">Sprioc</tspan>
                </text>
                <g id="wind_logo_small" transform="translate(57.000000, 0.000000)">
                    <g id="wind_logo">
                        <polygon id="Polygon" stroke="#FF4F4F" stroke-width="8" points="129.842437 0 259.609794 74.9212185 259.609794 224.763655 129.842437 299.684874 0.0750799897 224.763655 0.0750799897 74.9212185"></polygon>
                        <g id="noun_7745_cc" transform="translate(37.623049, 93.637455)" fill="#FF4F4F">
                            <g id="Group">
                                <path d="M156.298329,31.4547727 C158.240747,32.2244382 160.07032,31.5138357 160.388506,29.6847265 C160.706693,27.8611544 159.387698,25.5576949 157.445281,24.7271206 C106.35229,2.93285024 55.2574499,72.1160003 4.16260962,19.6218571 C2.22204165,17.6358616 0.390619058,17.1393627 0.0724325077,18.7562141 C-0.245754043,20.3675282 1.0732402,23.5569337 3.01380818,25.6222952 C54.1086485,79.9529306 105.203489,11.0115699 156.298329,31.4547727 L156.298329,31.4547727 Z" id="Shape"></path>
                                <path d="M58.4911132,24.6477546 C79.1158915,21.8053447 99.7425196,11.413937 120.367298,7.46778607 C122.307866,7.09310476 124.137438,5.20308674 124.457475,3.17094821 C124.773812,1.14065541 123.454817,-0.297161037 121.512399,0.0535259012 C100.889471,3.75604168 80.262843,14.1603694 59.6380648,17.2796375 C57.6956469,17.5786442 55.8660742,19.3819134 55.5497376,21.3992861 C55.231551,23.4166589 56.5486953,24.9116927 58.4911132,24.6477546 L58.4911132,24.6477546 Z" id="Shape"></path>
                                <path d="M180.722847,63.3008381 C129.628006,8.97020274 78.5331661,77.9152549 27.4401757,57.4702064 C25.4977578,56.7023865 23.6663352,57.412989 23.3499986,59.2402525 C23.033662,61.0619789 24.3508063,63.3672841 26.2932242,64.1997041 C77.3862146,85.9958202 128.481055,16.807133 179.574045,69.3068134 C181.516463,71.2891175 183.347886,71.7893078 183.664222,70.1706107 C183.978709,68.5574508 182.665265,65.3680454 180.722847,63.3008381 L180.722847,63.3008381 Z" id="Shape"></path>
                                <path d="M165.324098,72.0514001 C114.231107,40.3400723 63.1362669,110.543906 12.0414266,69.9952672 C10.0990087,68.4651647 8.26943603,68.4153303 7.95124948,70.1097019 C7.63491285,71.8003821 8.9539071,74.6575578 10.896325,76.2651805 C61.9893154,118.486042 113.082306,48.3615746 164.177146,78.5575657 C166.117714,79.6963754 167.949137,79.3586085 168.265473,77.5922537 C168.58551,75.8351276 167.266515,73.2585015 165.324098,72.0514001 L165.324098,72.0514001 Z" id="Shape"></path>
                                <path d="M70.4749067,101.472189 C49.8501285,106.714035 29.2253503,107.120094 8.60057204,88.6998011 C6.65815414,86.9740522 4.82673155,86.7359542 4.51039492,88.3989486 C4.19405829,90.0527144 5.51120262,93.0520106 7.45177059,94.8571254 C28.0765488,113.980638 48.701327,114.019398 69.3261053,108.962123 C71.2685231,108.487773 73.0999457,106.370731 73.4162824,104.296141 C73.732619,102.21786 72.4173246,100.979381 70.4749067,101.472189 L70.4749067,101.472189 Z" id="Shape"></path>
                            </g>
                        </g>
                    </g>
                </g>
            </g>
        </g>
    </g>
</svg>
