<svg xmlns="http://www.w3.org/2000/svg" xmlns:xlink="http://www.w3.org/1999/xlink" version="1.1" x="0px" y="0px" viewBox="0 0 100 100" enable-background="new 0 0 100 100" xml:space="preserve"><path d="M14.9,65.5c-0.4-0.9-0.7-1.9-1.6-2.5c-1.5-1.1-3.8-0.7-4.8,0.9c-1.1,1.8,0,3.7,0.8,5.4c1.7,3.6,3.9,7,6.5,10  C21,85.2,27.6,89.8,35,92.4c4.2,1.5,8.5,2.3,12.9,2.5c2.1,0.1,4.5,0.2,5.3-2.2c0.7-2.1-0.9-4.4-3.1-4.4c-7.9,0-15.8-2.5-22.3-7.1  c-3.2-2.3-6-5-8.4-8.2c-1.2-1.6-2.3-3.3-3.2-5C15.8,67.2,15.3,66.4,14.9,65.5z"/><path d="M8.6,55.4c1.1-0.1,2.2-0.7,2.7-1.7c0.7-1.2,0.4-2.7,0.4-4c0-2.4,0.3-4.8,0.7-7.1c0.9-4.5,2.6-8.8,5-12.7  c4.8-7.8,12.4-13.7,21.2-16.5c5.6-1.8,11.7-2.2,17.5-1.3l-1.3,5.2c-7.2-1-14.6,0.3-21,3.9c-1.6,0.9-3.1,1.9-4.5,3  c-1.2,1-2,2.3-1.6,3.9c0.4,1.5,1.9,2.5,3.5,2.4c1.7-0.2,3.1-1.8,4.5-2.7c3-1.9,6.4-3.2,9.9-3.8c3.7-0.6,7.2-0.3,10.9,0.4  c1.3,0.3,2.7-0.2,3.5-1.4c0.6-0.9,0.7-2.1,1-3.1c0.8-3.2,1.7-6.3,2.4-9.5c0.9-4.2-4.3-4.5-7.2-4.9c-3.5-0.5-7-0.5-10.5-0.2  C34.2,6.4,23.4,12,16,20.7C12.3,25,9.4,30,7.5,35.4c-1,2.8-1.6,5.6-2,8.5c-0.2,1.5-0.3,2.9-0.4,4.4c-0.1,1.5-0.3,3.5,0.3,5  C5.9,54.6,7.2,55.5,8.6,55.4z"/><path d="M8.6,55.4C8.5,55.4,10.4,55.3,8.6,55.4L8.6,55.4z"/><path d="M89.9,29.2C93.3,35.6,86.4,22.5,89.9,29.2L89.9,29.2z"/><path d="M89.9,29.2c-3.1-5.9-7.5-11.1-12.8-15.1c-1.2-0.9-2.5-2.1-4-2.1c-1.4,0-2.6,0.9-3.1,2.2c-1.2,3.2,2.8,4.8,4.7,6.5  c3,2.5,5.6,5.5,7.6,8.7l-4.7,2.5c-1.3-1.9-2.7-3.7-4.3-5.3c-1.5-1.5-3.2-3.2-5.1-4.1c-1.7-0.8-3.7-0.1-4.5,1.6  c-0.9,1.9,0.2,3.4,1.7,4.5c1.8,1.3,3.4,2.8,4.8,4.4c1.4,1.6,2.3,3.4,3.4,5.1c0.8,1.2,2.3,1.8,3.8,1.4c0.7-0.2,1.4-0.6,2-1  c2-1.1,4-2.1,6-3.2c4,9.7,3.9,20.9-0.4,30.5C81.2,74.1,74.5,81,66.1,84.9c-1.9,0.9-4.5,1.3-5,3.6c-0.5,2.4,1.8,4.5,4.1,3.9  c2.2-0.6,4.3-1.7,6.3-2.8c2-1.1,3.9-2.3,5.7-3.7c7.3-5.5,12.8-13.2,15.7-21.9C96.5,52.6,95.5,39.8,89.9,29.2z"/><path d="M70.2,44.1c0-1.7-1.1-3.6-2-5c-1-1.6-2.2-3.1-3.5-4.4c-5.3-5.1-13.1-7-20.1-5.1c-4.2,1.1-8,3.6-10.8,6.9  c-1.9-1.1-3.8-2.3-5.7-3.4c-0.7-0.4-1.4-0.9-2.2-1.3c-1.6-0.7-3.3-0.1-4.3,1.3c-2.8,4.3-4.3,9.8-4.6,14.8c-0.3,4.3,0.3,8.6,1.6,12.6  c5.2,15.6,21.8,25.2,38,21.9c7.8-1.6,14.9-6.1,19.7-12.4c2.4-3.2,4.2-6.7,5.4-10.5c0.6-2,1-4,1.2-6c0.1-1,0.2-1.9,0.2-2.9  c0-1.2,0.2-2.6-0.3-3.8c-0.8-1.8-3.1-2.6-4.8-1.6c-2.1,1.3-1.5,3.8-1.6,5.9c-0.2,4.1-1.3,8.1-3.2,11.6C69.4,69.7,62.5,74.6,54.7,76  c-8.1,1.4-16.5-1-22.5-6.5c-6.2-5.7-9.4-14.1-8.4-22.4c0.3-2.6,1-5.2,2.1-7.7l4.6,2.7c-4.3,10.7,1,23.2,11.7,27.5  c10.2,4.1,22.3-0.5,27.1-10.4c1-2,1.8-4.7-0.7-6.1c-0.9-0.5-2.1-0.5-3-0.1c-1.2,0.6-1.6,1.6-2,2.8c-2,4.6-6.3,7.9-11.2,8.6  c-4.6,0.7-9.4-0.9-12.7-4.3c-3.8-4-5-9.9-3.2-15c2.1-5.8,7.8-9.6,13.9-9.6c6,0.1,11.5,4,13.5,9.7c0.3,0.8,0.2,0.4,0,0  C65,48.5,70.1,47.7,70.2,44.1z"/><path d="M48.6,42.2c-3.7,0.7-6.4,4-6.4,7.8c0,3.3,2.1,6.4,5.3,7.5c3.1,1.1,6.7,0.1,8.8-2.4c2.1-2.6,2.4-6.3,0.7-9.1  C55.2,43.1,51.8,41.6,48.6,42.2z"/></svg>
